<?xml version="1.0" encoding="utf-8"?>
<!-- Generator: Adobe Illustrator 24.0.0, SVG Export Plug-In . SVG Version: 6.00 Build 0)  -->
<svg version="1.1" id="Layer_1" focusable="false" xmlns="http://www.w3.org/2000/svg" xmlns:xlink="http://www.w3.org/1999/xlink"
	 x="0px" y="0px" viewBox="0 0 576 512" style="enable-background:new 0 0 576 512;" xml:space="preserve">
<style type="text/css">
	.st0{fill:#FFA6A6;}
	.st1{fill:#FF3B3B;}
</style>
<path class="st0" d="M552,64H159.2l52.4,256h293.1c11.2,0,20.9-7.8,23.4-18.7l47.3-208c2.9-12.9-5.2-25.8-18.1-28.7
	C555.6,64.2,553.8,64,552,64z M444.4,196.5l-67.8,72c-4.8,4.7-12.4,4.7-17.2,0l-67.8-72c-7.6-7.6-2.2-20.5,8.6-20.5h43.5v-52
	c0-6.7,5.5-12,12.1-12c0,0,0,0,0,0h24.3c6.7,0,12.1,5.3,12.1,12c0,0,0,0,0,0v52h43.5C446.7,176,452.1,188.9,444.4,196.5L444.4,196.5
	z"/>
<path class="st1" d="M504.4,405.6l5.5-24.3c2.9-12.9-5.2-25.8-18.1-28.7c-1.7-0.4-3.5-0.6-5.3-0.6H218.1L150,19.2
	C147.7,8,137.9,0,126.5,0H24C10.7,0,0,10.7,0,24v16c0,13.3,10.7,24,24,24h69.9l70.3,343.4c-26.8,15.4-36.1,49.6-20.7,76.4
	c15.4,26.8,49.6,36.1,76.4,20.7c26.8-15.4,36.1-49.6,20.7-76.4c-2.6-4.5-5.7-8.5-9.4-12.1h209.6c-22.1,21.6-22.5,57.1-0.8,79.2
	c21.6,22.1,57.1,22.5,79.2,0.8c22.1-21.6,22.5-57.1,0.8-79.2C515.5,412.2,510.2,408.4,504.4,405.6z M359.4,268.5
	c4.8,4.7,12.4,4.7,17.2,0l67.8-72c7.6-7.6,2.2-20.5-8.6-20.5h-43.5v-52c0-6.7-5.5-12-12.1-12c0,0,0,0,0,0h-24.3
	c-6.7,0-12.1,5.3-12.1,12c0,0,0,0,0,0v52h-43.5c-10.8,0-16.2,12.9-8.6,20.5L359.4,268.5z"/>
</svg>
