<?xml version="1.0" encoding="utf-8"?>
<!-- Generator: Adobe Illustrator 24.0.0, SVG Export Plug-In . SVG Version: 6.00 Build 0)  -->
<svg version="1.1" id="Layer_1" focusable="false" xmlns="http://www.w3.org/2000/svg" xmlns:xlink="http://www.w3.org/1999/xlink"
	 x="0px" y="0px" viewBox="0 0 576 512" style="enable-background:new 0 0 576 512;" xml:space="preserve">
<style type="text/css">
	.st0{fill:#2B2B2B;}
</style>
<path class="st0" d="M560,160c-2,0-4,0.4-6,1.2L384,224l-10.3-3.6C397,185.5,416,149.2,416,123C416,55,358.7,0,288,0
	S160,55.1,160,123c0,11.8,4,25.8,10.4,40.6L20.1,216C8,220.8,0,232.6,0,245.7V496c0,9.2,7.5,16,16,16c2,0,4-0.4,6-1.2L192,448
	l172,60.7c13,4.3,27,4.4,40,0.2L555.9,456c12.2-4.9,20.1-16.6,20.1-29.7V176C576,166.8,568.5,160,560,160z M176,419.8L31.9,473
	l-1.3-226.9L176,195.6V419.8z M288,32c52.9,0,96,40.8,96,91c0,27-38.1,88.9-96,156.8C230.1,211.9,192,150,192,123
	C192,72.8,235.1,32,288,32L288,32z M208,419.7V228.8c24.4,35.3,52.1,68,67.7,85.7c3.2,3.7,7.8,5.5,12.3,5.5s9-1.8,12.3-5.5
	c12.8-14.5,33.7-39.1,54.3-66.9l13.4,4.7v223.9L208,419.7z M400,476.4V252.2L544.1,199l1.3,226.9L400,476.4z"/>
</svg>
