<svg xmlns="http://www.w3.org/2000/svg" width="300mm" height="300mm" viewBox="0 0 300 300"><g transform="translate(0 3)"><path fill="#ffaa41" fill-rule="evenodd" d="M 42.563486,239.74781 H 259.71597 c 16.10995,0 29.23045,-13.21433 29.23045,-29.35587 v 0 c 0,-16.22526 -13.1205,-29.43958 -29.23045,-29.43958 H 42.563486 c -16.026932,0 -29.230466,13.21432 -29.230466,29.43958 v 0 c 0,16.14154 13.203534,29.35587 29.230466,29.35587 z"/><path fill="#ed8f42" fill-rule="evenodd" d="m 41.48395,238.6605 h 217.15247 c 16.10998,0 29.23048,-13.21423 29.23048,-29.43949 v 0 c 0,-16.14155 -13.1205,-29.35588 -29.23048,-29.35588 h -18.93337 c 3.98598,5.01811 6.39418,11.37434 6.39418,18.31606 v 0 c 0,16.14154 -13.1205,29.43951 -29.14744,29.43951 H 18.647645 c 5.397673,6.69084 13.618745,11.0398 22.836305,11.0398 z"/><path fill="none" stroke="#1a1a1a" stroke-linecap="round" stroke-linejoin="round" stroke-width="9" d="m 113.23146,240.83503 h 146.48451 c 16.10995,0 29.23045,-13.21433 29.23045,-29.35587 v 0 c 0,-16.14154 -13.1205,-29.4395 -29.23045,-29.4395 H 42.563486 c -16.026932,0 -29.230466,13.29796 -29.230466,29.4395 v 0 c 0,16.14154 13.203534,29.35587 29.230466,29.35587 h 40.6071"/><path fill="#0f9700" fill-rule="evenodd" stroke="#1a1a1a" stroke-linecap="round" stroke-linejoin="round" stroke-width="9" d="M 19.727181,183.96321 H 282.38619 c 0,13.4653 14.94739,32.61768 -31.72171,32.61768 -14.61522,0 -27.07142,-2.34178 -31.22344,-5.60352 -4.15207,3.26174 -16.52519,5.60352 -31.22347,5.60352 -18.01992,0 -32.7182,-3.59626 -32.7182,-8.02895 0,-2.34179 -1.99297,-2.92721 -1.99297,0 0,4.43269 -14.61523,8.02895 -32.7182,8.02895 -18.01992,0 -32.718193,-3.59626 -32.718193,-8.02895 0,-2.17452 -0.996496,-2.75995 -0.996496,0 0,4.43269 -14.615233,8.02895 -32.718189,8.02895 -18.102965,0 -32.718198,-3.59626 -32.718198,-8.02895 0,-2.09088 -1.57778,-2.75995 -1.909943,-0.83631 z"/><path fill="#db333f" fill-rule="evenodd" d="m 37.581016,159.7927 h 94.749894 c 9.88189,0 17.85384,8.11259 17.85384,17.98154 v 0 c 0,9.86895 -7.97195,17.98154 -17.85384,17.98154 H 37.581016 c -9.798844,0 -17.853835,-8.11259 -17.853835,-17.98154 v 0 c 0,-9.86895 8.054991,-17.98154 17.853835,-17.98154 z"/><path fill="#c9121e" fill-rule="evenodd" d="m 131.16834,159.7927 h 6.89241 c 6.39417,0 11.62574,8.11259 11.62574,17.98154 v 0 c 0,9.86895 -5.23157,17.98154 -11.62574,17.98154 H 30.854692 c -5.895918,0 -10.712307,-6.77446 -11.542713,-15.47248 H 119.62563 c 6.39416,0 11.62575,-8.11259 11.62575,-17.98153 v 0 c 0,-0.83634 0,-1.67274 -0.0831,-2.50907 z"/><path fill="none" stroke="#1a1a1a" stroke-linecap="round" stroke-linejoin="round" stroke-width="9" d="m 37.331894,159.7927 h 94.749896 c 9.79885,0 17.85383,8.11259 17.85383,17.98154 v 0 c 0,9.86895 -8.05498,17.98154 -17.85383,17.98154 H 37.331894 c -9.798852,0 -17.853835,-8.11259 -17.853835,-17.98154 v 0 c 0,-9.86895 8.054983,-17.98154 17.853835,-17.98154 z"/><path fill="#db333f" fill-rule="evenodd" d="m 167.4573,159.7927 h 97.24113 c 9.88188,0 17.93686,8.11259 17.93686,17.98154 v 0 c 0,9.86895 -8.05498,17.98154 -17.93686,17.98154 H 167.4573 c -9.88189,0 -17.93688,-8.11259 -17.93688,-17.98154 v 0 c 0,-9.86895 8.05499,-17.98154 17.93688,-17.98154 z"/><path fill="#c9121e" fill-rule="evenodd" d="m 263.12065,159.7927 h 7.0585 c 6.56023,0 11.87486,8.11259 11.87486,17.98154 v 0 c 0,9.86895 -5.31463,17.98154 -11.87486,17.98154 h -109.2821 c -5.97896,0 -10.96143,-6.77446 -11.79182,-15.47248 h 102.30662 c 6.56026,0 11.87489,-8.11259 11.87489,-17.98153 v 0 c 0,-0.83634 -0.0831,-1.67274 -0.16607,-2.50907 z"/><path fill="none" stroke="#1a1a1a" stroke-linecap="round" stroke-linejoin="round" stroke-width="9" d="m 167.12513,159.7927 h 97.32416 c 9.79887,0 17.85386,8.11259 17.85386,17.98154 v 0 c 0,9.86895 -8.05499,17.98154 -17.85386,17.98154 h -97.32416 c -9.79884,0 -17.85383,-8.11259 -17.85383,-17.98154 v 0 c 0,-9.86895 8.05499,-17.98154 17.85383,-17.98154 z"/><path fill="#ffaa41" fill-rule="evenodd" d="M 84.748366,86.528446 C 92.305105,77.579466 103.5987,71.808645 116.22094,71.808645 v 0 c 12.04096,0 23.00238,5.35265 30.55912,13.799764 7.55676,-8.447114 18.51817,-13.799764 30.55913,-13.799764 v 0 c 14.20002,0 26.82227,7.359886 34.29598,18.48333 7.39066,-11.123444 20.01291,-18.48333 34.21291,-18.48333 v 0 c 22.67024,0 41.27144,18.734225 41.27144,41.566615 v 5.93806 4.26541 13.21433 c 0,11.20715 -10.29708,25.7596 -21.34157,25.7596 H 31.020774 c -11.127512,0 -18.684251,-13.1307 -18.76729,-24.33776 l -0.33213,-18.90158 c 0,-0.83632 0.08307,-1.58902 0.166065,-2.42542 v -3.51264 c 0,-22.83239 18.518167,-41.566615 41.271424,-41.566615 v 0 c 12.539209,0 23.832802,5.770821 31.38954,14.719801 z"/><path fill="#ed8f42" fill-rule="evenodd" d="M 84.748366,87.615664 C 92.305105,78.666722 103.5987,72.89591 116.22094,72.89591 v 0 c 12.04096,0 23.00238,5.352622 30.55912,13.799793 7.55676,-8.447171 18.51817,-13.799793 30.55913,-13.799793 v 0 c 14.20002,0 26.82227,7.359867 34.29598,18.483292 7.39066,-11.123425 20.01291,-18.483292 34.21291,-18.483292 v 0 c 22.67024,0 41.27144,18.734273 41.27144,41.56656 v 5.93815 4.26534 13.29796 c 0,9.86894 -8.05498,22.41421 -17.60472,25.17416 v -3.09447 -4.18179 -5.93806 c 0,-22.91602 -18.6012,-41.56661 -41.27142,-41.56661 v 0 c -14.20002,0 -26.82228,7.3599 -34.21293,18.3997 -7.4737,-11.0398 -20.01291,-18.3997 -34.21293,-18.3997 v 0 c -12.124,0 -23.08543,5.269 -30.64217,13.71612 -7.55674,-8.44712 -18.43512,-13.71612 -30.559125,-13.71612 v 0 c -12.5392,0 -23.832793,5.68717 -31.472572,14.7198 -7.556746,-9.03263 -18.850338,-14.7198 -31.38954,-14.7198 v 0 c -8.802354,0 -16.940387,2.75995 -23.666711,7.52716 v -1.42184 c 0,-22.832287 18.518169,-41.56656 41.271425,-41.56656 v 0 c 12.539208,0 23.832792,5.770812 31.389539,14.719754 z"/><path fill="#ed8f42" fill-rule="evenodd" d="M204.57667 115.88431v-1.25457c0-22.832291 18.6012-41.566564 41.27141-41.566564v0l-29.56262 37.050334c-4.23509 1.33812-8.13803 3.26175-11.70879 5.7708zM136.06776 115.88431v-1.25457c0-22.832291 18.60122-41.566564 41.27143-41.566564v0l-29.56264 37.050334c-4.23508 1.33812-8.13803 3.26175-11.70879 5.7708zM74.949514 115.88431v-1.25457c0-22.832291 18.518168-41.566564 41.271426-41.566564v0 0 0 0 0L75.364717 115.63341z"/><path fill="none" stroke="#1a1a1a" stroke-linecap="round" stroke-linejoin="round" stroke-width="9" d="m 287.11952,137.96392 c 0,11.20715 -10.29708,25.67596 -21.34157,25.67596 H 31.020774 c -11.127512,0 -18.684251,-13.1307 -18.76729,-24.25412 l -0.33213,-18.98514 c 0,-0.7526 0.08307,-1.58909 0.166065,-2.34179 v -3.59636 c 0,-22.832287 18.518167,-41.56656 41.271424,-41.56656 v 0 c 12.539209,0 23.832802,5.770812 31.38954,14.719754 C 92.305121,78.666722 103.59871,72.89591 116.22095,72.89591 v 0 c 12.04097,0 23.00239,5.352622 30.55913,13.799793 7.55675,-8.447171 18.51817,-13.799793 30.55912,-13.799793 v 0 c 14.20003,0 26.82228,7.359867 34.29598,18.483292 C 219.02584,80.255777 231.6481,72.89591 245.8481,72.89591 v 0 c 20.42812,0 37.45156,15.221534 40.69016,34.87582"/><path fill="none" stroke="#1a1a1a" stroke-linecap="round" stroke-linejoin="round" stroke-width="9" d="M204.57667 124.83322v-10.20348c0-22.832291 18.6012-41.566564 41.27141-41.566564v0M136.06776 124.83322v-10.20348c0-22.832291 18.60122-41.566564 41.27143-41.566564v0M74.949514 124.83322v-10.20348c0-22.832291 18.518168-41.566564 41.271426-41.566564v0"/></g></svg>