<?xml version="1.0" encoding="utf-8"?>
<!-- Generator: Adobe Illustrator 24.0.0, SVG Export Plug-In . SVG Version: 6.00 Build 0)  -->
<svg version="1.1" id="Layer_1" focusable="false" xmlns="http://www.w3.org/2000/svg" xmlns:xlink="http://www.w3.org/1999/xlink"
	 x="0px" y="0px" viewBox="0 0 616 512" style="enable-background:new 0 0 616 512;" xml:space="preserve">
<style type="text/css">
	.st0{fill:#FFFFFF;}
</style>
<g>
	<path class="st0" d="M547.7,286.8c5.6-0.7,11-2,16.4-3.6V480c0,17.7-14.3,32-32,32H84c-17.7,0-32-14.3-32-32V283.2
		c5.4,1.6,10.9,2.8,16.4,3.6c6,0.8,12,1.2,18,1.2c9.9-0.2,19.8-1.4,29.5-3.8V384H500v-99.8c9.7,2.4,19.6,3.7,29.5,3.8
		C535.6,288,541.7,287.6,547.7,286.8z"/>
	<path class="st0" d="M602,118.6c33.6,53.6,3.8,128-59,136.4c-4.5,0.6-9.1,0.9-13.7,0.9c-28.2,0-55-12.1-73.8-33.1
		c-36.3,40.7-98.7,44.4-139.5,8.1c-2.9-2.5-5.5-5.2-8.1-8.1c-36.3,40.8-98.9,44.3-139.6,8c-2.8-2.5-5.5-5.2-8-8
		c-18.7,21.1-45.6,33.1-73.8,33.1c-4.6,0-9.2-0.3-13.7-0.9c-62.7-8.5-92.4-82.9-58.8-136.4L78.8,15C84.7,5.6,95,0,106,0h404
		c11,0,21.2,5.7,27.1,15L602,118.6z"/>
</g>
</svg>
