<?xml version="1.0" encoding="utf-8"?>
<!-- Generator: Adobe Illustrator 24.0.0, SVG Export Plug-In . SVG Version: 6.00 Build 0)  -->
<svg version="1.1" id="Layer_1" focusable="false" xmlns="http://www.w3.org/2000/svg" xmlns:xlink="http://www.w3.org/1999/xlink"
	 x="0px" y="0px" viewBox="0 0 496 512" style="enable-background:new 0 0 496 512;" xml:space="preserve">
<style type="text/css">
	.st0{fill:#FFFFFF;}
</style>
<path class="st0" d="M265,273c9.4-9.4,9.4-24.6,0-33.9c-9.4-9.4-24.6-9.4-33.9,0c-9.4,9.4-9.4,24.6,0,33.9
	C240.4,282.3,255.6,282.3,265,273z M351.4,125c-2.3,0-4.5,0.4-6.7,1.2L189.8,182c-7.5,2.7-13.1,8.3-15.8,15.8l-55.8,154.9
	c-5.7,15.7,10.3,34.3,26.4,34.3c2.3,0,4.5-0.4,6.7-1.2L306.2,330c7.5-2.7,13.1-8.3,15.8-15.8l55.9-154.9
	C383.5,143.6,367.5,125,351.4,125L351.4,125z M292.8,300.8l-140.1,50.5l50.5-140.1l140.1-50.5L292.8,300.8z M248,8
	C111,8,0,119,0,256s111,248,248,248s248-111,248-248S385,8,248,8z M248,472c-119.1,0-216-96.9-216-216S128.9,40,248,40
	s216,96.9,216,216S367.1,472,248,472z"/>
</svg>
